<?xml version="1.0" encoding="UTF-8" standalone="no"?>
<!-- Created with Inkscape (http://www.inkscape.org/) -->

<svg
   xmlns:osb="http://www.openswatchbook.org/uri/2009/osb"
   xmlns:dc="http://purl.org/dc/elements/1.1/"
   xmlns:cc="http://creativecommons.org/ns#"
   xmlns:rdf="http://www.w3.org/1999/02/22-rdf-syntax-ns#"
   xmlns:svg="http://www.w3.org/2000/svg"
   xmlns="http://www.w3.org/2000/svg"
   xmlns:sodipodi="http://sodipodi.sourceforge.net/DTD/sodipodi-0.dtd"
   xmlns:inkscape="http://www.inkscape.org/namespaces/inkscape"
   id="svg2"
   version="1.1"
   inkscape:version="0.91 r13725"
   width="900"
   height="650"
   xml:space="preserve"
   sodipodi:docname="mask_2.svg"><title
     id="title3026">PROJECT M.A.S.K.</title><metadata
     id="metadata8"><rdf:RDF><cc:Work
         rdf:about=""><dc:format>image/svg+xml</dc:format><dc:type
           rdf:resource="http://purl.org/dc/dcmitype/StillImage" /><dc:title>PROJECT M.A.S.K.</dc:title><dc:date>01/01/2016</dc:date><dc:creator><cc:Agent><dc:title>Adriano Freitas</dc:title></cc:Agent></dc:creator><dc:language>en-US</dc:language><dc:subject><rdf:Bag /></dc:subject></cc:Work></rdf:RDF></metadata><defs
     id="defs6"><linearGradient
       id="linearGradient4111"
       osb:paint="gradient"><stop
         style="stop-color:#6fa6e7;stop-opacity:1;"
         offset="0"
         id="stop4113" /><stop
         style="stop-color:#6fa6e7;stop-opacity:0;"
         offset="1"
         id="stop4115" /></linearGradient><linearGradient
       id="linearGradient5210"
       osb:paint="solid"><stop
         style="stop-color:#000000;stop-opacity:1;"
         offset="0"
         id="stop5212" /></linearGradient><linearGradient
       osb:paint="solid"
       id="linearGradient5210-7"><stop
         id="stop5212-7"
         offset="0"
         style="stop-color:#000000;stop-opacity:1;" /></linearGradient><filter
       inkscape:label="Chrome"
       inkscape:menu-tooltip="Bright chrome effect"
       inkscape:menu="Non realistic 3D shaders"
       height="1.5"
       y="-0.25"
       width="1.5"
       x="-0.25"
       style="color-interpolation-filters:sRGB"
       id="filter4253"><feGaussianBlur
         stdDeviation="5"
         result="result8"
         in="SourceGraphic"
         id="feGaussianBlur4255" /><feComposite
         in2="result8"
         operator="xor"
         id="feComposite4257" /><feComposite
         k2="1"
         operator="arithmetic"
         result="result17"
         in2="result8"
         id="feComposite4259"
         k1="0"
         k3="0"
         k4="0" /><feOffset
         result="result18"
         in="result17"
         id="feOffset4261" /><feDisplacementMap
         in2="result17"
         in="result18"
         xChannelSelector="A"
         yChannelSelector="A"
         scale="100"
         result="result4"
         id="feDisplacementMap4263" /><feComposite
         in2="result4"
         result="fbSourceGraphic"
         operator="arithmetic"
         in="result4"
         k1="1"
         k3="1"
         id="feComposite4265"
         k2="0"
         k4="0" /><feComposite
         in2="fbSourceGraphic"
         result="result9"
         operator="over"
         id="feComposite4267" /><feComposite
         in2="SourceGraphic"
         operator="in"
         result="result15"
         id="feComposite4269" /><feComposite
         result="result16"
         in2="SourceGraphic"
         operator="in"
         in="result15"
         id="feComposite4271" /></filter></defs><sodipodi:namedview
     pagecolor="#ffffff"
     bordercolor="#666666"
     borderopacity="1"
     objecttolerance="10"
     gridtolerance="10"
     guidetolerance="10"
     inkscape:pageopacity="0"
     inkscape:pageshadow="2"
     inkscape:window-width="1366"
     inkscape:window-height="700"
     id="namedview4"
     showgrid="false"
     inkscape:zoom="0.55566405"
     inkscape:cx="329.26508"
     inkscape:cy="461.84687"
     inkscape:window-x="0"
     inkscape:window-y="32"
     inkscape:window-maximized="1"
     inkscape:current-layer="g10"
     showguides="true"
     inkscape:guide-bbox="true"
     inkscape:snap-global="false"><sodipodi:guide
       orientation="0,1"
       position="383.51554,500.36793"
       id="guide3017" /><inkscape:grid
       type="xygrid"
       id="grid3019" /><sodipodi:guide
       orientation="1,0"
       position="503.36415,1297.3612"
       id="guide3021" /><sodipodi:guide
       orientation="0,1"
       position="540.81684,426.58614"
       id="guide3979" /><sodipodi:guide
       orientation="1,0"
       position="522.65229,407.48526"
       id="guide4083" /><sodipodi:guide
       orientation="0,1"
       position="520.60737,381.48411"
       id="guide4180" /><sodipodi:guide
       orientation="0,1"
       position="514.77374,338.17382"
       id="guide4182" /><sodipodi:guide
       orientation="1,0"
       position="482.95393,397.39401"
       id="guide4208" /><sodipodi:guide
       orientation="0,1"
       position="509.5,270.75"
       id="guide3794" /></sodipodi:namedview><g
     id="g10"
     inkscape:groupmode="layer"
     inkscape:label="Black-Logo"
     transform="matrix(1.25,0,0,-1.25,0,650)"><path
       d="M 0,0 720,0 720,520 0,520 0,0 Z"
       style="fill:#272520;fill-opacity:1;fill-rule:nonzero;stroke:none"
       id="path12"
       inkscape:connector-curvature="0" /><g
       id="g4190"
       transform="translate(-41.082525,-156.23088)"><path
         sodipodi:nodetypes="cccscccc"
         inkscape:connector-curvature="0"
         d="m 276.58161,369.54207 0.0461,-29.58204 c -0.43336,-22.34525 4.97884,-42.94479 15.63725,-55.42934 10.53854,-12.35759 25.42899,-20.78997 44.25637,-20.78997 l 156.15051,0 c 42.07129,2.35695 87.41392,41.32786 87.09364,74.66402 l 0.0461,31.13733 z"
         style="fill:#ff542b;fill-opacity:1"
         id="path3018" /><path
         sodipodi:nodetypes="cccscccc"
         inkscape:connector-curvature="0"
         d="m 222.30639,363.13904 0.0433,-27.76084 c -0.67045,-37.24446 56.62087,-70.93813 91.40629,-71.52689 l 136.8626,0 c 17.66828,0 31.65065,8.34016 41.5404,19.94692 9.99358,11.73578 15.07257,29.38917 14.66591,50.12043 l 0.0433,29.22038 z"
         style="fill:#0c0c0c;fill-opacity:1"
         id="path3018-3" /><path
         sodipodi:nodetypes="cscccscc"
         inkscape:connector-curvature="0"
         d="m 403.85053,216.56419 -53.69125,-3.4 c -10.66727,-0.67551 -19.14743,4.39689 -25.12511,10.51591 -6.05097,6.18705 -9.12356,15.94397 -8.87754,26.99902 0,54.11832 -91.48569,51.96456 -93.83183,111.97425 l 0,104.41578 c 0,87.16844 94.28199,152.29482 177.96955,152.29482 0,0 3.55618,-177.06984 3.55618,-402.79978 z"
         style="fill:#0f0f0f;fill-opacity:1"
         id="path3002" /><path
         sodipodi:nodetypes="ccscsccc"
         inkscape:connector-curvature="0"
         d="m 401.89435,619.36397 0,-402.59978 53.95618,-3.6 c 10.66493,-0.71157 19.14743,4.39689 25.12511,10.51591 6.05096,6.18705 8.87754,15.94121 8.87754,26.87863 0,55.27684 87.7628,52.44696 90.00548,112.09988 l 0,104.41054 c 0.005,87.16844 -94.21394,152.29482 -177.96431,152.29482 z"
         style="fill:#ff4618;fill-opacity:1"
         id="path3004" /><path
         inkscape:connector-curvature="0"
         d="m 326.22238,398.11642 c -27.93075,0 -50.65328,22.72776 -50.65328,50.65328 0,27.93075 22.72253,50.6585 50.65328,50.6585 27.93075,0 50.6585,-22.72775 50.6585,-50.6585 0,-27.92552 -22.72775,-50.65328 -50.6585,-50.65328 z"
         style="fill:#0d0d0d;fill-opacity:0.94117647"
         id="path3010" /><path
         inkscape:connector-curvature="0"
         d="m 488.31599,398.11642 c -27.93075,0 -50.65327,22.72776 -50.65327,50.65328 0,27.93075 22.72252,50.6585 50.65327,50.6585 27.93075,0 50.65851,-22.72775 50.65851,-50.6585 0,-27.92552 -22.72776,-50.65328 -50.65851,-50.65328 z"
         style="fill:#0d0d0d;fill-opacity:1"
         id="path3014" /><rect
         transform="matrix(-0.5,0.8660254,-0.8660254,-0.5,0,0)"
         y="-499.10883"
         x="94.084358"
         height="28.341726"
         width="11.242205"
         id="rect2999-26-4"
         style="fill:#ff0000;fill-opacity:0;stroke:#5294e2;stroke-width:0.30642205;stroke-opacity:0" /><rect
         transform="matrix(-0.49999999,0.86602541,-0.86602541,-0.49999999,0,0)"
         y="-500.64081"
         x="95.414108"
         height="28.002651"
         width="10.319921"
         id="rect2999-7-2-3"
         style="fill:#0d0d0d;fill-opacity:1;stroke:#5294e2;stroke-width:0.29182258;stroke-opacity:0" /><rect
         transform="matrix(-0.49999998,0.86602542,-0.86602542,-0.49999998,0,0)"
         y="-482.28976"
         x="63.404392"
         height="28.002651"
         width="10.319921"
         id="rect2999-7-2-3-3"
         style="fill:#0d0d0d;fill-opacity:1;stroke:#5294e2;stroke-width:0.29182261;stroke-opacity:0" /><rect
         transform="matrix(-0.49999998,0.86602542,-0.86602542,-0.49999998,0,0)"
         y="-464.83316"
         x="33.168697"
         height="28.002651"
         width="10.319921"
         id="rect2999-7-2-3-6"
         style="fill:#0d0d0d;fill-opacity:1;stroke:#5294e2;stroke-width:0.29182261;stroke-opacity:0" /><rect
         transform="matrix(0.50000002,0.86602539,-0.86602539,0.50000002,0,0)"
         y="-242.21947"
         x="465.52057"
         height="28.002649"
         width="10.319921"
         id="rect2999-7-2-1"
         style="fill:#0a0a0a;fill-opacity:1;stroke:#5294e2;stroke-width:0.29182258;stroke-opacity:0" /><rect
         transform="matrix(0.50000002,0.86602539,-0.86602539,0.50000002,0,0)"
         y="-259.49426"
         x="435.59976"
         height="28.002649"
         width="10.319921"
         id="rect2999-7-2-1-7"
         style="fill:#0a0a0a;fill-opacity:1;stroke:#5294e2;stroke-width:0.29182258;stroke-opacity:0" /><rect
         transform="matrix(0.50000002,0.86602539,-0.86602539,0.50000002,0,0)"
         y="-224.11754"
         x="496.87402"
         height="28.002649"
         width="10.319921"
         id="rect2999-7-2-1-5"
         style="fill:#0a0a0a;fill-opacity:1;stroke:#5294e2;stroke-width:0.29182258;stroke-opacity:0" /></g></g></svg>