<?xml version="1.0" encoding="UTF-8" standalone="no"?>
<svg
   xmlns:dc="http://purl.org/dc/elements/1.1/"
   xmlns:cc="http://creativecommons.org/ns#"
   xmlns:rdf="http://www.w3.org/1999/02/22-rdf-syntax-ns#"
   xmlns:svg="http://www.w3.org/2000/svg"
   xmlns="http://www.w3.org/2000/svg"
   xmlns:sodipodi="http://sodipodi.sourceforge.net/DTD/sodipodi-0.dtd"
   xmlns:inkscape="http://www.inkscape.org/namespaces/inkscape"
   id="svg2"
   xml:space="preserve"
   height="650"
   width="900"
   version="1.1"
   inkscape:version="0.91 r13725"
   sodipodi:docname="archl0rd.svg"><defs
     id="defs21" /><sodipodi:namedview
     pagecolor="#ffffff"
     bordercolor="#666666"
     borderopacity="1"
     objecttolerance="10"
     gridtolerance="10"
     guidetolerance="10"
     inkscape:pageopacity="0"
     inkscape:pageshadow="2"
     inkscape:window-width="1600"
     inkscape:window-height="863"
     id="namedview19"
     showgrid="false"
     inkscape:zoom="0.35111111"
     inkscape:cx="129.58861"
     inkscape:cy="300"
     inkscape:window-x="0"
     inkscape:window-y="0"
     inkscape:window-maximized="1"
     inkscape:current-layer="svg2" /><title
     id="title2998">PROJECT M.A.S.K.</title><metadata
     id="metadata8"><rdf:RDF><cc:Work
         rdf:about=""><dc:format>image/svg+xml</dc:format><dc:type
           rdf:resource="http://purl.org/dc/dcmitype/StillImage" /><dc:title>PROJECT M.A.S.K.</dc:title><dc:date>01/01/2016</dc:date><dc:creator><cc:Agent><dc:title>Adriano Freitas</dc:title></cc:Agent></dc:creator><dc:language>en-US</dc:language><dc:subject><rdf:Bag /></dc:subject><cc:license
           rdf:resource="" /></cc:Work></rdf:RDF></metadata><path
     style="fill:#18bc9c"
     inkscape:connector-curvature="0"
     d="M 0,650 900,650 900,0 0,0 0,650 Z"
     id="path12" /><g
     transform="matrix(1.25,0,0,-1.25,-0.64375,775.18687)"
     id="g4185"><path
       style="fill:#fafafa"
       inkscape:connector-curvature="0"
       d="M 361.07,155.37 360,565.23 c -84.238,0 -179.14,-65.233 -179.14,-152.54 l 0,-104.58 c 0,-74.352 91.397,-48.968 90.908,-106.84 -0.24236,-10.953 2.6871,-26.17 8.7884,-32.368 z"
       id="path3002-3-2" /><g
       transform="translate(-40.9,96.895)"
       id="g4173"><path
         style="fill:#262e33"
         inkscape:connector-curvature="0"
         d="m 326.22,246.12 c -27.931,0 -50.653,22.728 -50.653,50.653 0,27.931 22.723,50.658 50.653,50.658 27.931,0 50.658,-22.728 50.658,-50.658 0,-27.926 -22.728,-50.653 -50.658,-50.653 z"
         id="path3010" /><path
         style="fill:#1d2226"
         inkscape:connector-curvature="0"
         d="m 400.9,58.174 0,409.87 c 84.238,0 180.17,-65.233 180.17,-152.54 l 0,-104.58 c 0,-74.352 -91.397,-48.968 -90.908,-106.84 0.24236,-10.953 -2.6871,-26.17 -8.7884,-32.368 z"
         id="path3002-3" /><g
         style="opacity:0.25;fill:#ffffff"
         transform="translate(-0.085772,-144.86)"
         id="g4184"><rect
           x="-9.7567997"
           y="-518.40997"
           width="10.32"
           height="28.003"
           transform="matrix(0.5,-0.86603,-0.86603,-0.5,0,0)"
           id="rect2999-7-2" /><rect
           x="-40.68"
           y="-536.46997"
           width="10.32"
           height="28.003"
           transform="matrix(0.5,-0.86603,-0.86603,-0.5,0,0)"
           id="rect2999-7-2-1" /></g><path
         style="fill:#262e33"
         inkscape:connector-curvature="0"
         d="m 488.32,246.12 c -27.931,0 -50.653,22.728 -50.653,50.653 0,27.931 22.723,50.658 50.653,50.658 27.931,0 50.659,-22.728 50.659,-50.658 0,-27.926 -22.728,-50.653 -50.659,-50.653 z"
         id="path3014" /><g
         style="opacity:0.25;fill:#1d2226"
         transform="translate(0,-145.6)"
         id="g4180"><rect
           x="-411.67999"
           y="175.64999"
           width="10.32"
           height="28.003"
           transform="matrix(-0.5,-0.8660254,0.8660254,-0.5,0,0)"
           id="rect2999-7-2-7" /><rect
           x="-442.60001"
           y="157.58"
           width="10.32"
           height="28.003"
           transform="matrix(-0.5,-0.8660254,0.8660254,-0.5,0,0)"
           id="rect2999-7-2-1-5" /></g></g></g></svg>